<?xml version="1.0" encoding="UTF-8" standalone="no"?>
<!-- Created with Inkscape (http://www.inkscape.org/) -->

<svg
   xmlns:dc="http://purl.org/dc/elements/1.1/"
   xmlns:cc="http://creativecommons.org/ns#"
   xmlns:rdf="http://www.w3.org/1999/02/22-rdf-syntax-ns#"
   xmlns:svg="http://www.w3.org/2000/svg"
   xmlns="http://www.w3.org/2000/svg"
   xmlns:xlink="http://www.w3.org/1999/xlink"
   xmlns:sodipodi="http://sodipodi.sourceforge.net/DTD/sodipodi-0.dtd"
   xmlns:inkscape="http://www.inkscape.org/namespaces/inkscape"
   width="20in"
   height="10in"
   viewBox="0 0 508 254.00002"
   version="1.1"
   id="svg8"
   inkscape:version="0.92.4 (5da689c313, 2019-01-14)"
   sodipodi:docname="logo.svg">
  <defs
     id="defs2">
    <linearGradient
       id="linearGradient6520"
       inkscape:collect="always">
      <stop
         id="stop6516"
         offset="0"
         style="stop-color:#ff9100;stop-opacity:1" />
      <stop
         id="stop6518"
         offset="1"
         style="stop-color:#ce00ac;stop-opacity:1" />
    </linearGradient>
    <linearGradient
       inkscape:collect="always"
       id="linearGradient6129">
      <stop
         style="stop-color:#0000ff;stop-opacity:1"
         offset="0"
         id="stop6125" />
      <stop
         style="stop-color:#ce00ac;stop-opacity:1"
         offset="1"
         id="stop6127" />
    </linearGradient>
    <radialGradient
       inkscape:collect="always"
       xlink:href="#linearGradient6129"
       id="radialGradient6150"
       cx="244.92856"
       cy="140.41815"
       fx="244.92856"
       fy="140.41815"
       r="212.80058"
       gradientTransform="matrix(1.1661971,0,0,0.21646112,-26.20407,217.0149)"
       gradientUnits="userSpaceOnUse" />
    <radialGradient
       inkscape:collect="always"
       xlink:href="#linearGradient6129"
       id="radialGradient6285"
       gradientUnits="userSpaceOnUse"
       gradientTransform="matrix(1.1661971,0,0,0.2164611,-26.20407,217.0149)"
       cx="244.92856"
       cy="140.41815"
       fx="244.92856"
       fy="140.41815"
       r="212.80058" />
    <radialGradient
       inkscape:collect="always"
       xlink:href="#linearGradient6129"
       id="radialGradient6290"
       gradientUnits="userSpaceOnUse"
       gradientTransform="matrix(3.7795276,0,0,0.70152867,0,432.20691)"
       cx="244.92856"
       cy="140.41815"
       fx="244.92856"
       fy="140.41815"
       r="212.80058" />
    <radialGradient
       inkscape:collect="always"
       xlink:href="#linearGradient6129"
       id="radialGradient6297"
       gradientUnits="userSpaceOnUse"
       gradientTransform="matrix(1.1661971,0,0,0.2164611,-26.20407,217.01489)"
       cx="244.92856"
       cy="140.41815"
       fx="244.92856"
       fy="140.41815"
       r="212.80058" />
    <radialGradient
       inkscape:collect="always"
       xlink:href="#linearGradient6129"
       id="radialGradient6304"
       gradientUnits="userSpaceOnUse"
       gradientTransform="matrix(1.1661971,0,0,0.2164611,-26.20407,217.01489)"
       cx="244.92856"
       cy="140.41815"
       fx="244.92856"
       fy="140.41815"
       r="212.80058" />
    <radialGradient
       inkscape:collect="always"
       xlink:href="#linearGradient6129"
       id="radialGradient6309"
       gradientUnits="userSpaceOnUse"
       gradientTransform="matrix(1.1661971,0,0,0.21646109,-26.20407,217.01489)"
       cx="244.92856"
       cy="140.41815"
       fx="244.92856"
       fy="140.41815"
       r="212.80058" />
    <radialGradient
       inkscape:collect="always"
       xlink:href="#linearGradient6129"
       id="radialGradient6316"
       gradientUnits="userSpaceOnUse"
       gradientTransform="matrix(1.1661971,0,0,0.21646109,-26.20407,217.01487)"
       cx="244.92856"
       cy="140.41815"
       fx="244.92856"
       fy="140.41815"
       r="212.80058" />
    <radialGradient
       inkscape:collect="always"
       xlink:href="#linearGradient6129"
       id="radialGradient6321"
       gradientUnits="userSpaceOnUse"
       gradientTransform="matrix(1.1661971,0,0,0.21646109,-26.20407,217.01487)"
       cx="244.92856"
       cy="140.41815"
       fx="244.92856"
       fy="140.41815"
       r="212.80058" />
    <radialGradient
       inkscape:collect="always"
       xlink:href="#linearGradient6129"
       id="radialGradient6328"
       gradientUnits="userSpaceOnUse"
       gradientTransform="matrix(1.1661971,0,0,0.21646109,-26.20407,217.01487)"
       cx="244.92856"
       cy="140.41815"
       fx="244.92856"
       fy="140.41815"
       r="212.80058" />
    <radialGradient
       inkscape:collect="always"
       xlink:href="#linearGradient6129"
       id="radialGradient6434"
       gradientUnits="userSpaceOnUse"
       gradientTransform="matrix(1.1661971,0,0,0.2164611,-26.20407,217.01489)"
       cx="244.92856"
       cy="140.41815"
       fx="244.92856"
       fy="140.41815"
       r="212.80058" />
    <linearGradient
       inkscape:collect="always"
       xlink:href="#linearGradient6520"
       id="linearGradient6474"
       x1="181.80655"
       y1="58.283928"
       x2="356.49924"
       y2="195.42783"
       gradientUnits="userSpaceOnUse"
       spreadMethod="repeat" />
    <linearGradient
       inkscape:collect="always"
       xlink:href="#linearGradient6520"
       id="linearGradient6525"
       gradientUnits="userSpaceOnUse"
       x1="181.80655"
       y1="58.283928"
       x2="356.49924"
       y2="195.42783"
       spreadMethod="repeat"
       gradientTransform="matrix(1.1661971,0,0,1.1661971,-53.09255,-14.113602)" />
    <linearGradient
       inkscape:collect="always"
       xlink:href="#linearGradient6520"
       id="linearGradient6554"
       gradientUnits="userSpaceOnUse"
       gradientTransform="matrix(1.1661971,0,0,1.1661971,-53.09255,-14.113602)"
       x1="181.80655"
       y1="58.283928"
       x2="356.49924"
       y2="195.42783"
       spreadMethod="repeat" />
    <linearGradient
       inkscape:collect="always"
       xlink:href="#linearGradient6520"
       id="linearGradient6556"
       gradientUnits="userSpaceOnUse"
       gradientTransform="matrix(1.1661971,0,0,1.1661971,-53.09255,-14.113602)"
       x1="181.80655"
       y1="58.283928"
       x2="356.49924"
       y2="195.42783"
       spreadMethod="repeat" />
    <linearGradient
       inkscape:collect="always"
       xlink:href="#linearGradient6520"
       id="linearGradient6558"
       gradientUnits="userSpaceOnUse"
       gradientTransform="matrix(1.1661971,0,0,1.1661971,-53.09255,-14.113602)"
       x1="181.80655"
       y1="58.283928"
       x2="356.49924"
       y2="195.42783"
       spreadMethod="repeat" />
    <linearGradient
       inkscape:collect="always"
       xlink:href="#linearGradient6520"
       id="linearGradient6560"
       gradientUnits="userSpaceOnUse"
       gradientTransform="matrix(1.1661971,0,0,1.1661971,-53.09255,-14.113602)"
       x1="181.80655"
       y1="58.283928"
       x2="356.49924"
       y2="195.42783"
       spreadMethod="repeat" />
    <linearGradient
       inkscape:collect="always"
       xlink:href="#linearGradient6520"
       id="linearGradient6562"
       gradientUnits="userSpaceOnUse"
       gradientTransform="matrix(1.1661971,0,0,1.1661971,-53.09255,-14.113602)"
       x1="181.80655"
       y1="58.283928"
       x2="356.49924"
       y2="195.42783"
       spreadMethod="repeat" />
  </defs>
  <sodipodi:namedview
     id="base"
     pagecolor="#ffffff"
     bordercolor="#666666"
     borderopacity="1.0"
     inkscape:pageopacity="0.0"
     inkscape:pageshadow="2"
     inkscape:zoom="0.7"
     inkscape:cx="951.66924"
     inkscape:cy="542.40107"
     inkscape:document-units="mm"
     inkscape:current-layer="layer1"
     showgrid="false"
     units="in"
     inkscape:window-width="1920"
     inkscape:window-height="1017"
     inkscape:window-x="-8"
     inkscape:window-y="-8"
     inkscape:window-maximized="1"
     showguides="false" />
  <metadata
     id="metadata5">
    <rdf:RDF>
      <cc:Work
         rdf:about="">
        <dc:format>image/svg+xml</dc:format>
        <dc:type
           rdf:resource="http://purl.org/dc/dcmitype/StillImage" />
        <dc:title></dc:title>
      </cc:Work>
    </rdf:RDF>
  </metadata>
  <g
     inkscape:groupmode="layer"
     id="layer3"
     inkscape:label="Layer 3"
     style="display:inline"
     transform="translate(0,-31.74999)">
    <g
       transform="matrix(1.6495828,0,0,1.6495828,190.37853,-1523.6352)"
       id="g4" />
  </g>
  <g
     inkscape:label="Layer 1"
     inkscape:groupmode="layer"
     id="layer1"
     transform="translate(0,-42.99996)"
     style="display:inline">
    <path
       style="fill:url(#radialGradient6150);fill-opacity:1;stroke-width:0.30855629"
       d="m 17.09988,215.02798 v 26.21101 h 8.939091 v 36.36566 h 44.611097 v -36.36566 h 8.939087 v -26.21101 z m 7.984495,7.98449 h 46.520284 v 10.24142 h -9.026473 v 36.27887 H 34.110854 v -36.27887 h -9.026479 z"
       id="path6239"
       inkscape:connector-curvature="0" />
    <path
       style="fill:url(#radialGradient6285);fill-opacity:1;stroke-width:0.30855629"
       d="m 111.85861,233.16711 v 7.9851 h 7.9851 v -7.9851 z"
       id="path6288"
       inkscape:connector-curvature="0" />
    <path
       style="fill:url(#radialGradient6434);fill-opacity:1;stroke-width:0.30855629"
       d="m 84.519428,214.9412 v 62.66345 H 147.18288 V 214.9412 Z m 7.985103,7.98449 h 46.693859 v 46.69386 h -19.35468 v -18.22593 h -7.9851 v 18.22593 H 92.504531 Z"
       id="path6293"
       inkscape:connector-curvature="0" />
    <path
       style="fill:url(#radialGradient6297);fill-opacity:1;stroke-width:0.30855629"
       d="m 155.07277,215.078 v 62.82978 h 26.02299 v -24.61581 h 10.7838 v 24.61581 h 26.02238 v -26.02299 h -12.191 v -10.7838 h 12.191 V 215.078 Z m 26.02299,13.832 h 10.7838 v 10.7844 h -10.7838 z"
       id="path6300"
       inkscape:connector-curvature="0" />
    <path
       style="fill:url(#radialGradient6304);fill-opacity:1;stroke-width:0.30855629"
       d="m 253.66073,233.25389 v 7.9851 h 7.98449 v -7.9851 z"
       id="path6307"
       inkscape:connector-curvature="0" />
    <path
       style="fill:url(#radialGradient6309);fill-opacity:1;stroke-width:0.30855629"
       d="m 226.40773,215.02798 v 62.57667 h 62.48988 v -62.57667 z m 7.98509,7.98449 h 46.5203 v 46.52029 h -46.5203 v -10.24142 h 27.2524 v -7.98449 h -27.2524 z"
       id="path6312"
       inkscape:connector-curvature="0" />
    <path
       style="fill:url(#radialGradient6316);fill-opacity:1;stroke-width:0.30855629"
       d="m 298.81542,215.87289 v 61.68112 h 55.06825 v -13.52886 h -32.24293 v -10.54696 h 32.24293 v -13.52887 h -32.24293 v -10.54816 h 32.24293 v -13.52827 z"
       id="path6319"
       inkscape:connector-curvature="0" />
    <path
       style="fill:url(#radialGradient6321);fill-opacity:1;stroke-width:0.30855629"
       d="m 362.65583,215.02798 v 26.21101 h 8.93911 v 36.36566 h 44.61105 v -36.36566 h 8.93972 v -26.21101 z m 7.98449,7.98449 h 46.52029 v 10.24142 h -9.02647 v 36.27887 h -28.46735 v -36.27887 h -9.02647 z"
       id="path6324"
       inkscape:connector-curvature="0" />
    <path
       style="fill:url(#radialGradient6328);fill-opacity:1;stroke-width:0.30855629"
       d="m 432.01349,215.02798 v 62.57667 h 62.48987 v -62.57667 z m 7.9851,7.98449 h 46.52029 v 10.24142 H 459.2659 v 7.9851 h 27.25298 v 28.29377 h -46.52029 v -10.24142 h 27.25239 v -7.98449 h -27.25239 z"
       id="path6331"
       inkscape:connector-curvature="0" />
    <path
       style="display:inline;fill:url(#linearGradient6554);fill-opacity:1;stroke-width:0.30855629"
       d="m 193.69464,168.022 c -0.23625,0.0299 -0.46213,0.10927 -0.66714,0.22659 -0.20499,0.11726 -0.38933,0.2721 -0.54298,0.4532 -0.15367,0.18109 -0.27634,0.38854 -0.35858,0.60987 -0.0823,0.22134 -0.12375,0.45689 -0.11452,0.69486 v 13.46861 c 0.004,0.20256 0.0442,0.4025 0.11393,0.5918 0.0698,0.18928 0.16919,0.36792 0.29229,0.52852 0.12309,0.16059 0.26984,0.30294 0.4345,0.41944 0.16468,0.1165 0.34736,0.20697 0.54179,0.26396 l 13.46618,3.84852 c 0.24865,0.10513 0.51573,0.14529 0.78165,0.13078 0.26592,-0.0146 0.53083,-0.0839 0.7738,-0.19887 0.24297,-0.11499 0.46444,-0.27598 0.64423,-0.47249 0.1798,-0.19651 0.31775,-0.42869 0.39414,-0.68763 0.0763,-0.25893 0.0865,-0.52921 0.0422,-0.79186 -0.0444,-0.26268 -0.14284,-0.51755 -0.28446,-0.74609 -0.14161,-0.22856 -0.32634,-0.431 -0.54177,-0.58758 -0.21544,-0.1566 -0.46218,-0.2678 -0.728,-0.31458 l -12.08312,-3.42726 v -12.02527 c 0.0106,-0.27818 -0.05,-0.5506 -0.16452,-0.79971 -0.11452,-0.24912 -0.28272,-0.47507 -0.48695,-0.66232 -0.20422,-0.18724 -0.44462,-0.33532 -0.70268,-0.42787 -0.25806,-0.0926 -0.53387,-0.12958 -0.80996,-0.0945 z"
       id="path6552"
       inkscape:connector-curvature="0" />
    <path
       style="display:inline;fill:url(#linearGradient6556);fill-opacity:1;stroke-width:0.30855629"
       d="m 274.49119,148.78062 c -0.23624,0.0299 -0.46154,0.10939 -0.66651,0.2266 -0.205,0.11724 -0.38935,0.27211 -0.54301,0.45319 -0.15365,0.18106 -0.27692,0.38796 -0.35918,0.60927 -0.0823,0.22132 -0.12376,0.45689 -0.11453,0.69486 v 13.4692 c 0.004,0.20258 0.0448,0.40252 0.11453,0.5918 0.0698,0.18929 0.16917,0.36794 0.29229,0.52852 0.12312,0.16059 0.26983,0.30299 0.43452,0.41945 0.16466,0.11651 0.34736,0.20702 0.54179,0.26396 l 13.46617,3.84852 c 0.24865,0.10513 0.51571,0.14528 0.78163,0.13078 0.26594,-0.0146 0.53022,-0.0838 0.77321,-0.19887 0.24299,-0.11499 0.46444,-0.27539 0.64423,-0.47188 0.1798,-0.19651 0.31834,-0.42934 0.39473,-0.68823 0.0764,-0.25893 0.0865,-0.52921 0.0422,-0.79189 -0.0444,-0.26265 -0.14344,-0.51752 -0.28504,-0.74606 -0.14163,-0.22856 -0.32574,-0.4304 -0.54117,-0.587 -0.21544,-0.15658 -0.46219,-0.26778 -0.72802,-0.31457 l -12.08316,-3.42788 v -12.02585 c 0.0106,-0.27812 -0.0499,-0.54943 -0.16452,-0.79851 -0.11452,-0.24909 -0.28331,-0.47568 -0.48751,-0.66291 -0.20424,-0.18724 -0.44406,-0.33535 -0.7021,-0.42788 -0.25807,-0.0926 -0.53448,-0.12959 -0.81057,-0.0945 z"
       id="path6548"
       inkscape:connector-curvature="0" />
    <path
       style="display:inline;fill:url(#linearGradient6558);fill-opacity:1;stroke-width:0.30855629"
       d="m 302.26549,116.3111 -19.23717,8.11708 25.72949,6.7346 19.41795,-9.19944 z"
       id="path6540"
       inkscape:connector-curvature="0" />
    <path
       style="display:inline;fill:url(#linearGradient6560);fill-opacity:1;stroke-width:0.30855629"
       d="m 302.26549,116.3111 25.91027,5.65224 -19.41795,9.19944 -25.72949,-6.7346 z"
       id="path6538"
       inkscape:connector-curvature="0" />
    <path
       style="display:inline;fill:url(#linearGradient6562);fill-opacity:1;stroke-width:0.30855629"
       d="m 230.2453,106.44996 c -0.23624,0.0296 -0.46153,0.1088 -0.66652,0.22598 -0.20501,0.11722 -0.38934,0.27266 -0.54299,0.45379 -0.15367,0.18113 -0.27694,0.3879 -0.35918,0.60928 -0.0823,0.22139 -0.12377,0.45689 -0.11452,0.69486 v 13.46921 c 0.004,0.20257 0.0448,0.4025 0.11452,0.5918 0.0698,0.1893 0.16918,0.36792 0.29228,0.52852 0.1231,0.16059 0.26985,0.30295 0.43451,0.41945 0.16467,0.1165 0.34735,0.207 0.54179,0.26396 l 13.46619,3.84852 c 0.24864,0.10502 0.51571,0.14529 0.78163,0.13075 0.26592,-0.0146 0.53023,-0.0838 0.7732,-0.19886 0.24298,-0.11499 0.46444,-0.27597 0.64423,-0.47247 0.17979,-0.19651 0.31835,-0.42871 0.39473,-0.68763 0.0763,-0.25893 0.0865,-0.52922 0.0422,-0.79188 -0.0444,-0.26265 -0.14344,-0.51754 -0.28506,-0.74608 -0.1416,-0.22853 -0.32574,-0.43099 -0.54118,-0.58758 -0.21544,-0.15659 -0.46217,-0.26779 -0.72799,-0.31459 l -12.08372,-3.42726 v -12.02586 c 0.0106,-0.27815 -0.0493,-0.55 -0.16391,-0.79912 -0.11465,-0.24909 -0.28333,-0.47507 -0.48755,-0.6623 -0.20422,-0.18725 -0.44403,-0.33534 -0.70209,-0.42788 -0.25807,-0.0926 -0.53446,-0.1296 -0.81055,-0.0945 z"
       id="path6536"
       inkscape:connector-curvature="0" />
    <path
       style="display:inline;fill:url(#linearGradient6525);fill-opacity:1;stroke-width:0.30855629"
       d="m 258.92116,66.1032 c -0.59512,0.02927 -1.1856,0.151628 -1.74347,0.360984 l -38.47432,15.392868 c -0.59868,0.258978 -1.12372,0.550993 -1.57412,0.884687 -0.45041,0.333683 -0.82636,0.709258 -1.12756,1.134188 -0.3012,0.424919 -0.5275,0.899215 -0.67859,1.431887 -0.15107,0.532671 -0.22719,1.123294 -0.22719,1.780222 -0.003,12.802353 0,25.798794 0,38.662954 -11.04886,4.70781 -22.23194,9.27761 -33.24452,14.01038 -0.32181,0.13561 -0.61469,0.29587 -0.88108,0.47912 -0.2664,0.18323 -0.50605,0.3894 -0.72137,0.61589 -0.21534,0.2265 -0.40633,0.47349 -0.57493,0.73886 -0.1686,0.26535 -0.31493,0.54929 -0.44113,0.84913 -0.25241,0.59966 -0.4245,1.26368 -0.53335,1.97488 -0.10881,0.71118 -0.15428,1.46934 -0.15428,2.25692 v 44.49537 c 0.002,0.31272 0.0325,0.62357 0.0892,0.9293 0.0566,0.30572 0.13911,0.60606 0.24528,0.89854 0.21234,0.58497 0.5195,1.13759 0.90097,1.63198 0.38147,0.4944 0.83739,0.93111 1.34932,1.28485 0.25598,0.17686 0.52622,0.33295 0.80756,0.46524 0.28132,0.13231 0.57378,0.24034 0.87565,0.32182 l 42.32222,11.54494 c 0.31665,0.0852 0.6408,0.1423 0.96726,0.17176 0.32645,0.0295 0.65544,0.0317 0.98231,0.006 0.32688,-0.0255 0.65176,-0.0788 0.96967,-0.15852 0.31792,-0.0797 0.62851,-0.18663 0.92807,-0.31999 l 38.47493,-17.31712 c 0.50313,-0.22378 0.96819,-0.52501 1.38249,-0.8853 0.41427,-0.36028 0.77784,-0.77937 1.07933,-1.23965 0.30148,-0.46027 0.54089,-0.96177 0.7057,-1.48552 0.16479,-0.52377 0.25495,-1.06981 0.25915,-1.62052 v -6.0735 l 37.03216,9.68095 c 0.3229,0.0842 0.65285,0.13883 0.98534,0.16512 0.3325,0.0263 0.66759,0.024 0.99979,-0.007 0.33222,-0.0307 0.66148,-0.0892 0.98351,-0.17597 0.32208,-0.0867 0.6369,-0.20169 0.93895,-0.34351 l 36.55127,-17.31713 c 0.48755,-0.23035 0.93671,-0.53368 1.33666,-0.89312 0.39999,-0.35946 0.7505,-0.77483 1.04079,-1.2288 0.29026,-0.45396 0.52011,-0.94631 0.67858,-1.46023 0.15847,-0.5139 0.24556,-1.04931 0.25009,-1.58857 v -11.54495 c 0.006,-0.38119 -0.0329,-0.7584 -0.11033,-1.12696 -0.0774,-0.36854 -0.19428,-0.72861 -0.34471,-1.07452 -0.1504,-0.3459 -0.33429,-0.6775 -0.54781,-0.99075 -0.21349,-0.31325 -0.45642,-0.60806 -0.72316,-0.87866 -0.26677,-0.27061 -0.55769,-0.51727 -0.86781,-0.73523 -0.31016,-0.21796 -0.63924,-0.40697 -0.98294,-0.56229 -0.34367,-0.15529 -0.70175,-0.27712 -1.06909,-0.35977 -0.36736,-0.0827 -0.74398,-0.12655 -1.12515,-0.12655 -0.38115,0 -0.7584,0.0438 -1.12574,0.12655 -0.36736,0.0827 -0.72482,0.20448 -1.06848,0.35977 -0.34369,0.15532 -0.67341,0.34433 -0.98353,0.56229 -0.31016,0.21796 -0.60108,0.46462 -0.86782,0.73523 -0.26677,0.2706 -0.50909,0.56541 -0.72259,0.87866 -0.21352,0.31325 -0.39799,0.64485 -0.54842,0.99075 -0.15038,0.34591 -0.26666,0.70598 -0.3441,1.07452 -0.0774,0.36856 -0.11627,0.74577 -0.11091,1.12696 v 7.87723 l -25.00877,11.84496 v -33.4314 l 25.00874,-11.84568 v 6.31336 c -0.006,0.38122 0.0335,0.75899 0.11091,1.12756 0.0774,0.36857 0.19371,0.728 0.3441,1.07392 0.15043,0.34591 0.3349,0.67809 0.54842,0.99135 0.2135,0.31327 0.45581,0.60745 0.72259,0.87805 0.26674,0.27062 0.55766,0.51788 0.86782,0.73584 0.31012,0.21796 0.63984,0.40697 0.98352,0.56228 0.34367,0.1553 0.70113,0.27652 1.06849,0.35917 0.36734,0.0827 0.74459,0.12657 1.12574,0.12657 0.38117,0 0.75779,-0.0439 1.12515,-0.12657 0.36734,-0.0827 0.72542,-0.20387 1.06909,-0.35917 0.3437,-0.15531 0.67277,-0.34432 0.98293,-0.56228 0.31013,-0.21796 0.60104,-0.46522 0.86782,-0.73584 0.26674,-0.2706 0.50967,-0.56478 0.72316,-0.87805 0.21352,-0.31326 0.39741,-0.64544 0.54781,-0.99135 0.15042,-0.34592 0.2673,-0.70535 0.34471,-1.07392 0.0774,-0.36857 0.11569,-0.74634 0.11033,-1.12756 v -12.92743 c 0,-0.59759 -0.0214,-1.16208 -0.0669,-1.69344 -0.0455,-0.53137 -0.11487,-1.02942 -0.21031,-1.49578 -0.0955,-0.46636 -0.21719,-0.90096 -0.36703,-1.30353 -0.14979,-0.40257 -0.32771,-0.7737 -0.53633,-1.11369 -0.20865,-0.34 -0.44833,-0.64884 -0.72016,-0.92747 -0.27187,-0.27865 -0.57592,-0.52699 -0.91543,-0.74549 -0.3395,-0.21849 -0.71418,-0.40692 -1.12577,-0.56649 -0.41155,-0.15956 -0.86005,-0.28987 -1.3481,-0.39172 l -38.95587,-8.47806 V 83.540274 c -0.008,-1.081254 -0.098,-2.052032 -0.2772,-2.912603 -0.0896,-0.430281 -0.20102,-0.833026 -0.33626,-1.208309 -0.13524,-0.375282 -0.29391,-0.723404 -0.47672,-1.043792 -0.18279,-0.320378 -0.38969,-0.613047 -0.62193,-0.87866 -0.23225,-0.265602 -0.49016,-0.503797 -0.77379,-0.71474 -0.28363,-0.210941 -0.59302,-0.394431 -0.9299,-0.550818 -0.33686,-0.156386 -0.70116,-0.285555 -1.09319,-0.387504 -14.10133,-3.191834 -28.2176,-6.411681 -42.32223,-9.620693 -0.5512,-0.12216 -1.12026,-0.163047 -1.6832,-0.120527 z m 0.96183,11.7854 23.74615,5.411779 -20.92033,9.380246 -23.68653,-6.433874 z m 36.01007,12.506773 v 16.114837 l -26.93238,11.3039 V 102.4815 Z m -69.25462,4.389696 30.77972,8.417811 v 28.74153 l -30.77972,-6.97506 z m 44.2459,38.362231 32.70395,8.53833 v 34.33352 l -32.70395,-8.53834 c 0.003,-11.4493 0,-22.9167 0,-34.33351 z m -49.47628,2.46544 25.00873,5.65164 -20.25926,9.13978 -24.2271,-6.61408 z m 37.93376,12.50678 v 33.55187 l -26.9324,12.08553 v -33.55188 z m -69.25463,4.38908 30.78029,8.41841 V 195.14 l -30.78029,-8.41781 z"
       id="path6528"
       inkscape:connector-curvature="0" />
  </g>
  <g
     inkscape:groupmode="layer"
     id="layer2"
     inkscape:label="Layer 2"
     style="display:inline"
     transform="translate(0,-31.74999)" />
</svg>
